<svg viewBox="0 0 200 200" xmlns="http://www.w3.org/2000/svg">
  <!-- Outer yellow border -->
  <circle cx="100" cy="100" r="95" fill="#F59E0B" stroke="none"/>
  
  <!-- Inner blue circle -->
  <circle cx="100" cy="100" r="80" fill="#1E40AF" stroke="none"/>
  
  <!-- Central white figure -->
  <circle cx="100" cy="55" r="12" fill="white"/>
  <path d="M100 75 L100 140 L95 145 L105 145 Z" fill="white"/>
  
  <!-- Orange leaf (left) -->
  <path d="M60 90 Q45 75 50 100 Q55 125 75 115 Q85 110 80 95 Q75 80 60 90 Z" fill="#EA580C"/>
  <path d="M65 95 Q70 85 75 95" stroke="white" stroke-width="2" fill="none"/>
  
  <!-- Green leaf (right) -->
  <path d="M140 90 Q155 75 150 100 Q145 125 125 115 Q115 110 120 95 Q125 80 140 90 Z" fill="#16A34A"/>
  <path d="M135 95 Q130 85 125 95" stroke="white" stroke-width="2" fill="none"/>
  
  <!-- White inner circle for the figure -->
  <circle cx="100" cy="100" r="25" fill="white"/>
  
  <!-- Figure body -->
  <circle cx="100" cy="90" r="8" fill="#1E40AF"/>
  <path d="M100 100 L100 125 M90 110 L110 110" stroke="#1E40AF" stroke-width="4" stroke-linecap="round"/>
</svg>